<svg version="1.1" xmlns="http://www.w3.org/2000/svg" width="334px" height="334px" viewBox="0 0 334 334"  preserveAspectRatio="xMinYMin meet"><rect width="100%" height="100%" fill="white" cx="0" cy="0"/><path d="M2,2l10,0 0,10 -10,0 0,-10z M12,2l10,0 0,10 -10,0 0,-10z M22,2l10,0 0,10 -10,0 0,-10z M32,2l10,0 0,10 -10,0 0,-10z M42,2l10,0 0,10 -10,0 0,-10z M52,2l10,0 0,10 -10,0 0,-10z M62,2l10,0 0,10 -10,0 0,-10z M102,2l10,0 0,10 -10,0 0,-10z M142,2l10,0 0,10 -10,0 0,-10z M172,2l10,0 0,10 -10,0 0,-10z M182,2l10,0 0,10 -10,0 0,-10z M192,2l10,0 0,10 -10,0 0,-10z M232,2l10,0 0,10 -10,0 0,-10z M262,2l10,0 0,10 -10,0 0,-10z M272,2l10,0 0,10 -10,0 0,-10z M282,2l10,0 0,10 -10,0 0,-10z M292,2l10,0 0,10 -10,0 0,-10z M302,2l10,0 0,10 -10,0 0,-10z M312,2l10,0 0,10 -10,0 0,-10z M322,2l10,0 0,10 -10,0 0,-10z M2,12l10,0 0,10 -10,0 0,-10z M62,12l10,0 0,10 -10,0 0,-10z M82,12l10,0 0,10 -10,0 0,-10z M92,12l10,0 0,10 -10,0 0,-10z M102,12l10,0 0,10 -10,0 0,-10z M162,12l10,0 0,10 -10,0 0,-10z M172,12l10,0 0,10 -10,0 0,-10z M202,12l10,0 0,10 -10,0 0,-10z M212,12l10,0 0,10 -10,0 0,-10z M232,12l10,0 0,10 -10,0 0,-10z M262,12l10,0 0,10 -10,0 0,-10z M322,12l10,0 0,10 -10,0 0,-10z M2,22l10,0 0,10 -10,0 0,-10z M22,22l10,0 0,10 -10,0 0,-10z M32,22l10,0 0,10 -10,0 0,-10z M42,22l10,0 0,10 -10,0 0,-10z M62,22l10,0 0,10 -10,0 0,-10z M82,22l10,0 0,10 -10,0 0,-10z M142,22l10,0 0,10 -10,0 0,-10z M152,22l10,0 0,10 -10,0 0,-10z M172,22l10,0 0,10 -10,0 0,-10z M182,22l10,0 0,10 -10,0 0,-10z M192,22l10,0 0,10 -10,0 0,-10z M242,22l10,0 0,10 -10,0 0,-10z M262,22l10,0 0,10 -10,0 0,-10z M282,22l10,0 0,10 -10,0 0,-10z M292,22l10,0 0,10 -10,0 0,-10z M302,22l10,0 0,10 -10,0 0,-10z M322,22l10,0 0,10 -10,0 0,-10z M2,32l10,0 0,10 -10,0 0,-10z M22,32l10,0 0,10 -10,0 0,-10z M32,32l10,0 0,10 -10,0 0,-10z M42,32l10,0 0,10 -10,0 0,-10z M62,32l10,0 0,10 -10,0 0,-10z M92,32l10,0 0,10 -10,0 0,-10z M122,32l10,0 0,10 -10,0 0,-10z M132,32l10,0 0,10 -10,0 0,-10z M162,32l10,0 0,10 -10,0 0,-10z M182,32l10,0 0,10 -10,0 0,-10z M192,32l10,0 0,10 -10,0 0,-10z M222,32l10,0 0,10 -10,0 0,-10z M242,32l10,0 0,10 -10,0 0,-10z M262,32l10,0 0,10 -10,0 0,-10z M282,32l10,0 0,10 -10,0 0,-10z M292,32l10,0 0,10 -10,0 0,-10z M302,32l10,0 0,10 -10,0 0,-10z M322,32l10,0 0,10 -10,0 0,-10z M2,42l10,0 0,10 -10,0 0,-10z M22,42l10,0 0,10 -10,0 0,-10z M32,42l10,0 0,10 -10,0 0,-10z M42,42l10,0 0,10 -10,0 0,-10z M62,42l10,0 0,10 -10,0 0,-10z M82,42l10,0 0,10 -10,0 0,-10z M92,42l10,0 0,10 -10,0 0,-10z M102,42l10,0 0,10 -10,0 0,-10z M122,42l10,0 0,10 -10,0 0,-10z M182,42l10,0 0,10 -10,0 0,-10z M212,42l10,0 0,10 -10,0 0,-10z M232,42l10,0 0,10 -10,0 0,-10z M262,42l10,0 0,10 -10,0 0,-10z M282,42l10,0 0,10 -10,0 0,-10z M292,42l10,0 0,10 -10,0 0,-10z M302,42l10,0 0,10 -10,0 0,-10z M322,42l10,0 0,10 -10,0 0,-10z M2,52l10,0 0,10 -10,0 0,-10z M62,52l10,0 0,10 -10,0 0,-10z M82,52l10,0 0,10 -10,0 0,-10z M102,52l10,0 0,10 -10,0 0,-10z M122,52l10,0 0,10 -10,0 0,-10z M152,52l10,0 0,10 -10,0 0,-10z M162,52l10,0 0,10 -10,0 0,-10z M182,52l10,0 0,10 -10,0 0,-10z M192,52l10,0 0,10 -10,0 0,-10z M202,52l10,0 0,10 -10,0 0,-10z M212,52l10,0 0,10 -10,0 0,-10z M242,52l10,0 0,10 -10,0 0,-10z M262,52l10,0 0,10 -10,0 0,-10z M322,52l10,0 0,10 -10,0 0,-10z M2,62l10,0 0,10 -10,0 0,-10z M12,62l10,0 0,10 -10,0 0,-10z M22,62l10,0 0,10 -10,0 0,-10z M32,62l10,0 0,10 -10,0 0,-10z M42,62l10,0 0,10 -10,0 0,-10z M52,62l10,0 0,10 -10,0 0,-10z M62,62l10,0 0,10 -10,0 0,-10z M82,62l10,0 0,10 -10,0 0,-10z M102,62l10,0 0,10 -10,0 0,-10z M122,62l10,0 0,10 -10,0 0,-10z M142,62l10,0 0,10 -10,0 0,-10z M162,62l10,0 0,10 -10,0 0,-10z M182,62l10,0 0,10 -10,0 0,-10z M202,62l10,0 0,10 -10,0 0,-10z M222,62l10,0 0,10 -10,0 0,-10z M242,62l10,0 0,10 -10,0 0,-10z M262,62l10,0 0,10 -10,0 0,-10z M272,62l10,0 0,10 -10,0 0,-10z M282,62l10,0 0,10 -10,0 0,-10z M292,62l10,0 0,10 -10,0 0,-10z M302,62l10,0 0,10 -10,0 0,-10z M312,62l10,0 0,10 -10,0 0,-10z M322,62l10,0 0,10 -10,0 0,-10z M82,72l10,0 0,10 -10,0 0,-10z M102,72l10,0 0,10 -10,0 0,-10z M112,72l10,0 0,10 -10,0 0,-10z M132,72l10,0 0,10 -10,0 0,-10z M152,72l10,0 0,10 -10,0 0,-10z M162,72l10,0 0,10 -10,0 0,-10z M172,72l10,0 0,10 -10,0 0,-10z M182,72l10,0 0,10 -10,0 0,-10z M202,72l10,0 0,10 -10,0 0,-10z M212,72l10,0 0,10 -10,0 0,-10z M222,72l10,0 0,10 -10,0 0,-10z M232,72l10,0 0,10 -10,0 0,-10z M2,82l10,0 0,10 -10,0 0,-10z M12,82l10,0 0,10 -10,0 0,-10z M32,82l10,0 0,10 -10,0 0,-10z M62,82l10,0 0,10 -10,0 0,-10z M72,82l10,0 0,10 -10,0 0,-10z M112,82l10,0 0,10 -10,0 0,-10z M122,82l10,0 0,10 -10,0 0,-10z M142,82l10,0 0,10 -10,0 0,-10z M162,82l10,0 0,10 -10,0 0,-10z M202,82l10,0 0,10 -10,0 0,-10z M212,82l10,0 0,10 -10,0 0,-10z M232,82l10,0 0,10 -10,0 0,-10z M242,82l10,0 0,10 -10,0 0,-10z M262,82l10,0 0,10 -10,0 0,-10z M272,82l10,0 0,10 -10,0 0,-10z M282,82l10,0 0,10 -10,0 0,-10z M302,82l10,0 0,10 -10,0 0,-10z M312,82l10,0 0,10 -10,0 0,-10z M2,92l10,0 0,10 -10,0 0,-10z M12,92l10,0 0,10 -10,0 0,-10z M32,92l10,0 0,10 -10,0 0,-10z M72,92l10,0 0,10 -10,0 0,-10z M82,92l10,0 0,10 -10,0 0,-10z M92,92l10,0 0,10 -10,0 0,-10z M112,92l10,0 0,10 -10,0 0,-10z M122,92l10,0 0,10 -10,0 0,-10z M132,92l10,0 0,10 -10,0 0,-10z M152,92l10,0 0,10 -10,0 0,-10z M162,92l10,0 0,10 -10,0 0,-10z M172,92l10,0 0,10 -10,0 0,-10z M182,92l10,0 0,10 -10,0 0,-10z M202,92l10,0 0,10 -10,0 0,-10z M242,92l10,0 0,10 -10,0 0,-10z M262,92l10,0 0,10 -10,0 0,-10z M292,92l10,0 0,10 -10,0 0,-10z M322,92l10,0 0,10 -10,0 0,-10z M2,102l10,0 0,10 -10,0 0,-10z M12,102l10,0 0,10 -10,0 0,-10z M52,102l10,0 0,10 -10,0 0,-10z M62,102l10,0 0,10 -10,0 0,-10z M82,102l10,0 0,10 -10,0 0,-10z M112,102l10,0 0,10 -10,0 0,-10z M122,102l10,0 0,10 -10,0 0,-10z M132,102l10,0 0,10 -10,0 0,-10z M142,102l10,0 0,10 -10,0 0,-10z M152,102l10,0 0,10 -10,0 0,-10z M172,102l10,0 0,10 -10,0 0,-10z M182,102l10,0 0,10 -10,0 0,-10z M192,102l10,0 0,10 -10,0 0,-10z M252,102l10,0 0,10 -10,0 0,-10z M262,102l10,0 0,10 -10,0 0,-10z M282,102l10,0 0,10 -10,0 0,-10z M292,102l10,0 0,10 -10,0 0,-10z M322,102l10,0 0,10 -10,0 0,-10z M2,112l10,0 0,10 -10,0 0,-10z M22,112l10,0 0,10 -10,0 0,-10z M32,112l10,0 0,10 -10,0 0,-10z M52,112l10,0 0,10 -10,0 0,-10z M72,112l10,0 0,10 -10,0 0,-10z M82,112l10,0 0,10 -10,0 0,-10z M92,112l10,0 0,10 -10,0 0,-10z M102,112l10,0 0,10 -10,0 0,-10z M112,112l10,0 0,10 -10,0 0,-10z M122,112l10,0 0,10 -10,0 0,-10z M132,112l10,0 0,10 -10,0 0,-10z M162,112l10,0 0,10 -10,0 0,-10z M182,112l10,0 0,10 -10,0 0,-10z M192,112l10,0 0,10 -10,0 0,-10z M212,112l10,0 0,10 -10,0 0,-10z M222,112l10,0 0,10 -10,0 0,-10z M232,112l10,0 0,10 -10,0 0,-10z M252,112l10,0 0,10 -10,0 0,-10z M262,112l10,0 0,10 -10,0 0,-10z M282,112l10,0 0,10 -10,0 0,-10z M312,112l10,0 0,10 -10,0 0,-10z M322,112l10,0 0,10 -10,0 0,-10z M2,122l10,0 0,10 -10,0 0,-10z M22,122l10,0 0,10 -10,0 0,-10z M62,122l10,0 0,10 -10,0 0,-10z M72,122l10,0 0,10 -10,0 0,-10z M82,122l10,0 0,10 -10,0 0,-10z M102,122l10,0 0,10 -10,0 0,-10z M112,122l10,0 0,10 -10,0 0,-10z M142,122l10,0 0,10 -10,0 0,-10z M152,122l10,0 0,10 -10,0 0,-10z M162,122l10,0 0,10 -10,0 0,-10z M172,122l10,0 0,10 -10,0 0,-10z M182,122l10,0 0,10 -10,0 0,-10z M202,122l10,0 0,10 -10,0 0,-10z M212,122l10,0 0,10 -10,0 0,-10z M232,122l10,0 0,10 -10,0 0,-10z M242,122l10,0 0,10 -10,0 0,-10z M262,122l10,0 0,10 -10,0 0,-10z M292,122l10,0 0,10 -10,0 0,-10z M322,122l10,0 0,10 -10,0 0,-10z M12,132l10,0 0,10 -10,0 0,-10z M32,132l10,0 0,10 -10,0 0,-10z M82,132l10,0 0,10 -10,0 0,-10z M92,132l10,0 0,10 -10,0 0,-10z M112,132l10,0 0,10 -10,0 0,-10z M132,132l10,0 0,10 -10,0 0,-10z M142,132l10,0 0,10 -10,0 0,-10z M152,132l10,0 0,10 -10,0 0,-10z M162,132l10,0 0,10 -10,0 0,-10z M192,132l10,0 0,10 -10,0 0,-10z M202,132l10,0 0,10 -10,0 0,-10z M222,132l10,0 0,10 -10,0 0,-10z M242,132l10,0 0,10 -10,0 0,-10z M252,132l10,0 0,10 -10,0 0,-10z M262,132l10,0 0,10 -10,0 0,-10z M272,132l10,0 0,10 -10,0 0,-10z M282,132l10,0 0,10 -10,0 0,-10z M292,132l10,0 0,10 -10,0 0,-10z M302,132l10,0 0,10 -10,0 0,-10z M312,132l10,0 0,10 -10,0 0,-10z M322,132l10,0 0,10 -10,0 0,-10z M32,142l10,0 0,10 -10,0 0,-10z M42,142l10,0 0,10 -10,0 0,-10z M52,142l10,0 0,10 -10,0 0,-10z M62,142l10,0 0,10 -10,0 0,-10z M92,142l10,0 0,10 -10,0 0,-10z M112,142l10,0 0,10 -10,0 0,-10z M132,142l10,0 0,10 -10,0 0,-10z M142,142l10,0 0,10 -10,0 0,-10z M202,142l10,0 0,10 -10,0 0,-10z M212,142l10,0 0,10 -10,0 0,-10z M222,142l10,0 0,10 -10,0 0,-10z M232,142l10,0 0,10 -10,0 0,-10z M252,142l10,0 0,10 -10,0 0,-10z M292,142l10,0 0,10 -10,0 0,-10z M312,142l10,0 0,10 -10,0 0,-10z M2,152l10,0 0,10 -10,0 0,-10z M12,152l10,0 0,10 -10,0 0,-10z M22,152l10,0 0,10 -10,0 0,-10z M42,152l10,0 0,10 -10,0 0,-10z M52,152l10,0 0,10 -10,0 0,-10z M72,152l10,0 0,10 -10,0 0,-10z M112,152l10,0 0,10 -10,0 0,-10z M162,152l10,0 0,10 -10,0 0,-10z M172,152l10,0 0,10 -10,0 0,-10z M182,152l10,0 0,10 -10,0 0,-10z M212,152l10,0 0,10 -10,0 0,-10z M222,152l10,0 0,10 -10,0 0,-10z M242,152l10,0 0,10 -10,0 0,-10z M272,152l10,0 0,10 -10,0 0,-10z M292,152l10,0 0,10 -10,0 0,-10z M312,152l10,0 0,10 -10,0 0,-10z M12,162l10,0 0,10 -10,0 0,-10z M42,162l10,0 0,10 -10,0 0,-10z M62,162l10,0 0,10 -10,0 0,-10z M72,162l10,0 0,10 -10,0 0,-10z M82,162l10,0 0,10 -10,0 0,-10z M102,162l10,0 0,10 -10,0 0,-10z M122,162l10,0 0,10 -10,0 0,-10z M132,162l10,0 0,10 -10,0 0,-10z M162,162l10,0 0,10 -10,0 0,-10z M202,162l10,0 0,10 -10,0 0,-10z M212,162l10,0 0,10 -10,0 0,-10z M222,162l10,0 0,10 -10,0 0,-10z M232,162l10,0 0,10 -10,0 0,-10z M242,162l10,0 0,10 -10,0 0,-10z M262,162l10,0 0,10 -10,0 0,-10z M272,162l10,0 0,10 -10,0 0,-10z M282,162l10,0 0,10 -10,0 0,-10z M322,162l10,0 0,10 -10,0 0,-10z M22,172l10,0 0,10 -10,0 0,-10z M32,172l10,0 0,10 -10,0 0,-10z M42,172l10,0 0,10 -10,0 0,-10z M52,172l10,0 0,10 -10,0 0,-10z M122,172l10,0 0,10 -10,0 0,-10z M132,172l10,0 0,10 -10,0 0,-10z M142,172l10,0 0,10 -10,0 0,-10z M152,172l10,0 0,10 -10,0 0,-10z M162,172l10,0 0,10 -10,0 0,-10z M182,172l10,0 0,10 -10,0 0,-10z M232,172l10,0 0,10 -10,0 0,-10z M252,172l10,0 0,10 -10,0 0,-10z M292,172l10,0 0,10 -10,0 0,-10z M302,172l10,0 0,10 -10,0 0,-10z M2,182l10,0 0,10 -10,0 0,-10z M12,182l10,0 0,10 -10,0 0,-10z M22,182l10,0 0,10 -10,0 0,-10z M52,182l10,0 0,10 -10,0 0,-10z M62,182l10,0 0,10 -10,0 0,-10z M82,182l10,0 0,10 -10,0 0,-10z M102,182l10,0 0,10 -10,0 0,-10z M112,182l10,0 0,10 -10,0 0,-10z M122,182l10,0 0,10 -10,0 0,-10z M142,182l10,0 0,10 -10,0 0,-10z M172,182l10,0 0,10 -10,0 0,-10z M182,182l10,0 0,10 -10,0 0,-10z M212,182l10,0 0,10 -10,0 0,-10z M272,182l10,0 0,10 -10,0 0,-10z M292,182l10,0 0,10 -10,0 0,-10z M312,182l10,0 0,10 -10,0 0,-10z M322,182l10,0 0,10 -10,0 0,-10z M2,192l10,0 0,10 -10,0 0,-10z M32,192l10,0 0,10 -10,0 0,-10z M42,192l10,0 0,10 -10,0 0,-10z M72,192l10,0 0,10 -10,0 0,-10z M122,192l10,0 0,10 -10,0 0,-10z M142,192l10,0 0,10 -10,0 0,-10z M152,192l10,0 0,10 -10,0 0,-10z M162,192l10,0 0,10 -10,0 0,-10z M172,192l10,0 0,10 -10,0 0,-10z M192,192l10,0 0,10 -10,0 0,-10z M212,192l10,0 0,10 -10,0 0,-10z M242,192l10,0 0,10 -10,0 0,-10z M262,192l10,0 0,10 -10,0 0,-10z M292,192l10,0 0,10 -10,0 0,-10z M2,202l10,0 0,10 -10,0 0,-10z M22,202l10,0 0,10 -10,0 0,-10z M62,202l10,0 0,10 -10,0 0,-10z M82,202l10,0 0,10 -10,0 0,-10z M152,202l10,0 0,10 -10,0 0,-10z M162,202l10,0 0,10 -10,0 0,-10z M202,202l10,0 0,10 -10,0 0,-10z M212,202l10,0 0,10 -10,0 0,-10z M232,202l10,0 0,10 -10,0 0,-10z M242,202l10,0 0,10 -10,0 0,-10z M252,202l10,0 0,10 -10,0 0,-10z M292,202l10,0 0,10 -10,0 0,-10z M312,202l10,0 0,10 -10,0 0,-10z M12,212l10,0 0,10 -10,0 0,-10z M42,212l10,0 0,10 -10,0 0,-10z M52,212l10,0 0,10 -10,0 0,-10z M72,212l10,0 0,10 -10,0 0,-10z M92,212l10,0 0,10 -10,0 0,-10z M112,212l10,0 0,10 -10,0 0,-10z M142,212l10,0 0,10 -10,0 0,-10z M152,212l10,0 0,10 -10,0 0,-10z M162,212l10,0 0,10 -10,0 0,-10z M172,212l10,0 0,10 -10,0 0,-10z M202,212l10,0 0,10 -10,0 0,-10z M212,212l10,0 0,10 -10,0 0,-10z M242,212l10,0 0,10 -10,0 0,-10z M262,212l10,0 0,10 -10,0 0,-10z M302,212l10,0 0,10 -10,0 0,-10z M322,212l10,0 0,10 -10,0 0,-10z M2,222l10,0 0,10 -10,0 0,-10z M12,222l10,0 0,10 -10,0 0,-10z M52,222l10,0 0,10 -10,0 0,-10z M62,222l10,0 0,10 -10,0 0,-10z M82,222l10,0 0,10 -10,0 0,-10z M92,222l10,0 0,10 -10,0 0,-10z M192,222l10,0 0,10 -10,0 0,-10z M242,222l10,0 0,10 -10,0 0,-10z M252,222l10,0 0,10 -10,0 0,-10z M262,222l10,0 0,10 -10,0 0,-10z M292,222l10,0 0,10 -10,0 0,-10z M322,222l10,0 0,10 -10,0 0,-10z M12,232l10,0 0,10 -10,0 0,-10z M32,232l10,0 0,10 -10,0 0,-10z M52,232l10,0 0,10 -10,0 0,-10z M82,232l10,0 0,10 -10,0 0,-10z M92,232l10,0 0,10 -10,0 0,-10z M102,232l10,0 0,10 -10,0 0,-10z M142,232l10,0 0,10 -10,0 0,-10z M182,232l10,0 0,10 -10,0 0,-10z M212,232l10,0 0,10 -10,0 0,-10z M222,232l10,0 0,10 -10,0 0,-10z M232,232l10,0 0,10 -10,0 0,-10z M292,232l10,0 0,10 -10,0 0,-10z M312,232l10,0 0,10 -10,0 0,-10z M322,232l10,0 0,10 -10,0 0,-10z M2,242l10,0 0,10 -10,0 0,-10z M22,242l10,0 0,10 -10,0 0,-10z M32,242l10,0 0,10 -10,0 0,-10z M42,242l10,0 0,10 -10,0 0,-10z M52,242l10,0 0,10 -10,0 0,-10z M62,242l10,0 0,10 -10,0 0,-10z M72,242l10,0 0,10 -10,0 0,-10z M92,242l10,0 0,10 -10,0 0,-10z M122,242l10,0 0,10 -10,0 0,-10z M152,242l10,0 0,10 -10,0 0,-10z M162,242l10,0 0,10 -10,0 0,-10z M172,242l10,0 0,10 -10,0 0,-10z M192,242l10,0 0,10 -10,0 0,-10z M202,242l10,0 0,10 -10,0 0,-10z M212,242l10,0 0,10 -10,0 0,-10z M242,242l10,0 0,10 -10,0 0,-10z M252,242l10,0 0,10 -10,0 0,-10z M262,242l10,0 0,10 -10,0 0,-10z M272,242l10,0 0,10 -10,0 0,-10z M282,242l10,0 0,10 -10,0 0,-10z M82,252l10,0 0,10 -10,0 0,-10z M92,252l10,0 0,10 -10,0 0,-10z M102,252l10,0 0,10 -10,0 0,-10z M112,252l10,0 0,10 -10,0 0,-10z M122,252l10,0 0,10 -10,0 0,-10z M172,252l10,0 0,10 -10,0 0,-10z M182,252l10,0 0,10 -10,0 0,-10z M192,252l10,0 0,10 -10,0 0,-10z M212,252l10,0 0,10 -10,0 0,-10z M242,252l10,0 0,10 -10,0 0,-10z M282,252l10,0 0,10 -10,0 0,-10z M322,252l10,0 0,10 -10,0 0,-10z M2,262l10,0 0,10 -10,0 0,-10z M12,262l10,0 0,10 -10,0 0,-10z M22,262l10,0 0,10 -10,0 0,-10z M32,262l10,0 0,10 -10,0 0,-10z M42,262l10,0 0,10 -10,0 0,-10z M52,262l10,0 0,10 -10,0 0,-10z M62,262l10,0 0,10 -10,0 0,-10z M82,262l10,0 0,10 -10,0 0,-10z M122,262l10,0 0,10 -10,0 0,-10z M172,262l10,0 0,10 -10,0 0,-10z M182,262l10,0 0,10 -10,0 0,-10z M202,262l10,0 0,10 -10,0 0,-10z M212,262l10,0 0,10 -10,0 0,-10z M222,262l10,0 0,10 -10,0 0,-10z M242,262l10,0 0,10 -10,0 0,-10z M262,262l10,0 0,10 -10,0 0,-10z M282,262l10,0 0,10 -10,0 0,-10z M302,262l10,0 0,10 -10,0 0,-10z M312,262l10,0 0,10 -10,0 0,-10z M2,272l10,0 0,10 -10,0 0,-10z M62,272l10,0 0,10 -10,0 0,-10z M92,272l10,0 0,10 -10,0 0,-10z M122,272l10,0 0,10 -10,0 0,-10z M132,272l10,0 0,10 -10,0 0,-10z M142,272l10,0 0,10 -10,0 0,-10z M152,272l10,0 0,10 -10,0 0,-10z M172,272l10,0 0,10 -10,0 0,-10z M182,272l10,0 0,10 -10,0 0,-10z M192,272l10,0 0,10 -10,0 0,-10z M202,272l10,0 0,10 -10,0 0,-10z M212,272l10,0 0,10 -10,0 0,-10z M242,272l10,0 0,10 -10,0 0,-10z M282,272l10,0 0,10 -10,0 0,-10z M312,272l10,0 0,10 -10,0 0,-10z M2,282l10,0 0,10 -10,0 0,-10z M22,282l10,0 0,10 -10,0 0,-10z M32,282l10,0 0,10 -10,0 0,-10z M42,282l10,0 0,10 -10,0 0,-10z M62,282l10,0 0,10 -10,0 0,-10z M92,282l10,0 0,10 -10,0 0,-10z M102,282l10,0 0,10 -10,0 0,-10z M112,282l10,0 0,10 -10,0 0,-10z M132,282l10,0 0,10 -10,0 0,-10z M142,282l10,0 0,10 -10,0 0,-10z M162,282l10,0 0,10 -10,0 0,-10z M172,282l10,0 0,10 -10,0 0,-10z M182,282l10,0 0,10 -10,0 0,-10z M192,282l10,0 0,10 -10,0 0,-10z M202,282l10,0 0,10 -10,0 0,-10z M212,282l10,0 0,10 -10,0 0,-10z M222,282l10,0 0,10 -10,0 0,-10z M242,282l10,0 0,10 -10,0 0,-10z M252,282l10,0 0,10 -10,0 0,-10z M262,282l10,0 0,10 -10,0 0,-10z M272,282l10,0 0,10 -10,0 0,-10z M282,282l10,0 0,10 -10,0 0,-10z M312,282l10,0 0,10 -10,0 0,-10z M2,292l10,0 0,10 -10,0 0,-10z M22,292l10,0 0,10 -10,0 0,-10z M32,292l10,0 0,10 -10,0 0,-10z M42,292l10,0 0,10 -10,0 0,-10z M62,292l10,0 0,10 -10,0 0,-10z M82,292l10,0 0,10 -10,0 0,-10z M152,292l10,0 0,10 -10,0 0,-10z M162,292l10,0 0,10 -10,0 0,-10z M182,292l10,0 0,10 -10,0 0,-10z M212,292l10,0 0,10 -10,0 0,-10z M232,292l10,0 0,10 -10,0 0,-10z M242,292l10,0 0,10 -10,0 0,-10z M252,292l10,0 0,10 -10,0 0,-10z M262,292l10,0 0,10 -10,0 0,-10z M282,292l10,0 0,10 -10,0 0,-10z M292,292l10,0 0,10 -10,0 0,-10z M2,302l10,0 0,10 -10,0 0,-10z M22,302l10,0 0,10 -10,0 0,-10z M32,302l10,0 0,10 -10,0 0,-10z M42,302l10,0 0,10 -10,0 0,-10z M62,302l10,0 0,10 -10,0 0,-10z M92,302l10,0 0,10 -10,0 0,-10z M132,302l10,0 0,10 -10,0 0,-10z M162,302l10,0 0,10 -10,0 0,-10z M172,302l10,0 0,10 -10,0 0,-10z M182,302l10,0 0,10 -10,0 0,-10z M222,302l10,0 0,10 -10,0 0,-10z M232,302l10,0 0,10 -10,0 0,-10z M272,302l10,0 0,10 -10,0 0,-10z M282,302l10,0 0,10 -10,0 0,-10z M302,302l10,0 0,10 -10,0 0,-10z M322,302l10,0 0,10 -10,0 0,-10z M2,312l10,0 0,10 -10,0 0,-10z M62,312l10,0 0,10 -10,0 0,-10z M82,312l10,0 0,10 -10,0 0,-10z M102,312l10,0 0,10 -10,0 0,-10z M112,312l10,0 0,10 -10,0 0,-10z M132,312l10,0 0,10 -10,0 0,-10z M152,312l10,0 0,10 -10,0 0,-10z M162,312l10,0 0,10 -10,0 0,-10z M172,312l10,0 0,10 -10,0 0,-10z M192,312l10,0 0,10 -10,0 0,-10z M212,312l10,0 0,10 -10,0 0,-10z M232,312l10,0 0,10 -10,0 0,-10z M242,312l10,0 0,10 -10,0 0,-10z M252,312l10,0 0,10 -10,0 0,-10z M262,312l10,0 0,10 -10,0 0,-10z M282,312l10,0 0,10 -10,0 0,-10z M2,322l10,0 0,10 -10,0 0,-10z M12,322l10,0 0,10 -10,0 0,-10z M22,322l10,0 0,10 -10,0 0,-10z M32,322l10,0 0,10 -10,0 0,-10z M42,322l10,0 0,10 -10,0 0,-10z M52,322l10,0 0,10 -10,0 0,-10z M62,322l10,0 0,10 -10,0 0,-10z M82,322l10,0 0,10 -10,0 0,-10z M102,322l10,0 0,10 -10,0 0,-10z M112,322l10,0 0,10 -10,0 0,-10z M122,322l10,0 0,10 -10,0 0,-10z M142,322l10,0 0,10 -10,0 0,-10z M152,322l10,0 0,10 -10,0 0,-10z M182,322l10,0 0,10 -10,0 0,-10z M202,322l10,0 0,10 -10,0 0,-10z M212,322l10,0 0,10 -10,0 0,-10z M242,322l10,0 0,10 -10,0 0,-10z M262,322l10,0 0,10 -10,0 0,-10z M292,322l10,0 0,10 -10,0 0,-10z M312,322l10,0 0,10 -10,0 0,-10z " stroke="transparent" fill="black"/></svg>